<svg width="28" height="20" viewBox="0 0 28 20" fill="none" xmlns="http://www.w3.org/2000/svg">
<rect width="28" height="20" rx="3" fill="white"/>
<mask id="mask0_4348_19742" style="mask-type:luminance" maskUnits="userSpaceOnUse" x="0" y="0" width="28" height="20">
<rect width="28" height="20" rx="3" fill="white"/>
</mask>
<g mask="url(#mask0_4348_19742)">
<path fill-rule="evenodd" clip-rule="evenodd" d="M28 0H0V1.33333H28V0ZM28 2.66667H0V4H28V2.66667ZM0 5.33333H28V6.66667H0V5.33333ZM28 8H0V9.33333H28V8ZM0 10.6667H28V12H0V10.6667ZM28 13.3333H0V14.6667H28V13.3333ZM0 16H28V17.3333H0V16ZM28 18.6667H0V20H28V18.6667Z" fill="#D02F44"/>
<rect width="12" height="9.33333" fill="#46467F"/>
<g filter="url(#filter0_d_4348_19742)">
<path fill-rule="evenodd" clip-rule="evenodd" d="M1.99967 2.66634C2.36786 2.66634 2.66634 2.36786 2.66634 1.99967C2.66634 1.63148 2.36786 1.33301 1.99967 1.33301C1.63148 1.33301 1.33301 1.63148 1.33301 1.99967C1.33301 2.36786 1.63148 2.66634 1.99967 2.66634ZM4.66667 2.66634C5.03486 2.66634 5.33333 2.36786 5.33333 1.99967C5.33333 1.63148 5.03486 1.33301 4.66667 1.33301C4.29848 1.33301 4 1.63148 4 1.99967C4 2.36786 4.29848 2.66634 4.66667 2.66634ZM7.99935 1.99967C7.99935 2.36786 7.70087 2.66634 7.33268 2.66634C6.96449 2.66634 6.66602 2.36786 6.66602 1.99967C6.66602 1.63148 6.96449 1.33301 7.33268 1.33301C7.70087 1.33301 7.99935 1.63148 7.99935 1.99967ZM9.99967 2.66634C10.3679 2.66634 10.6663 2.36786 10.6663 1.99967C10.6663 1.63148 10.3679 1.33301 9.99967 1.33301C9.63148 1.33301 9.33301 1.63148 9.33301 1.99967C9.33301 2.36786 9.63148 2.66634 9.99967 2.66634ZM3.99935 3.33293C3.99935 3.70112 3.70087 3.99959 3.33268 3.99959C2.96449 3.99959 2.66602 3.70112 2.66602 3.33293C2.66602 2.96474 2.96449 2.66626 3.33268 2.66626C3.70087 2.66626 3.99935 2.96474 3.99935 3.33293ZM5.99967 3.99967C6.36786 3.99967 6.66634 3.7012 6.66634 3.33301C6.66634 2.96482 6.36786 2.66634 5.99967 2.66634C5.63148 2.66634 5.33301 2.96482 5.33301 3.33301C5.33301 3.7012 5.63148 3.99967 5.99967 3.99967ZM9.33333 3.33293C9.33333 3.70112 9.03486 3.99959 8.66667 3.99959C8.29848 3.99959 8 3.70112 8 3.33293C8 2.96474 8.29848 2.66626 8.66667 2.66626C9.03486 2.66626 9.33333 2.96474 9.33333 3.33293ZM9.99967 5.33301C10.3679 5.33301 10.6663 5.03453 10.6663 4.66634C10.6663 4.29815 10.3679 3.99967 9.99967 3.99967C9.63148 3.99967 9.33301 4.29815 9.33301 4.66634C9.33301 5.03453 9.63148 5.33301 9.99967 5.33301ZM7.99935 4.66642C7.99935 5.03461 7.70087 5.33309 7.33268 5.33309C6.96449 5.33309 6.66602 5.03461 6.66602 4.66642C6.66602 4.29823 6.96449 3.99976 7.33268 3.99976C7.70087 3.99976 7.99935 4.29823 7.99935 4.66642ZM4.66667 5.33309C5.03486 5.33309 5.33333 5.03461 5.33333 4.66642C5.33333 4.29823 5.03486 3.99976 4.66667 3.99976C4.29848 3.99976 4 4.29823 4 4.66642C4 5.03461 4.29848 5.33309 4.66667 5.33309ZM2.66634 4.66634C2.66634 5.03453 2.36786 5.33301 1.99967 5.33301C1.63148 5.33301 1.33301 5.03453 1.33301 4.66634C1.33301 4.29815 1.63148 3.99967 1.99967 3.99967C2.36786 3.99967 2.66634 4.29815 2.66634 4.66634ZM3.33268 6.66634C3.70087 6.66634 3.99935 6.36786 3.99935 5.99967C3.99935 5.63148 3.70087 5.33301 3.33268 5.33301C2.96449 5.33301 2.66602 5.63148 2.66602 5.99967C2.66602 6.36786 2.96449 6.66634 3.33268 6.66634ZM6.66634 5.99967C6.66634 6.36786 6.36786 6.66634 5.99967 6.66634C5.63148 6.66634 5.33301 6.36786 5.33301 5.99967C5.33301 5.63148 5.63148 5.33301 5.99967 5.33301C6.36786 5.33301 6.66634 5.63148 6.66634 5.99967ZM8.66667 6.66634C9.03486 6.66634 9.33333 6.36786 9.33333 5.99967C9.33333 5.63148 9.03486 5.33301 8.66667 5.33301C8.29848 5.33301 8 5.63148 8 5.99967C8 6.36786 8.29848 6.66634 8.66667 6.66634ZM10.6663 7.33301C10.6663 7.7012 10.3679 7.99967 9.99967 7.99967C9.63148 7.99967 9.33301 7.7012 9.33301 7.33301C9.33301 6.96482 9.63148 6.66634 9.99967 6.66634C10.3679 6.66634 10.6663 6.96482 10.6663 7.33301ZM7.33268 7.99959C7.70087 7.99959 7.99935 7.70112 7.99935 7.33293C7.99935 6.96474 7.70087 6.66626 7.33268 6.66626C6.96449 6.66626 6.66602 6.96474 6.66602 7.33293C6.66602 7.70112 6.96449 7.99959 7.33268 7.99959ZM5.33333 7.33293C5.33333 7.70112 5.03486 7.99959 4.66667 7.99959C4.29848 7.99959 4 7.70112 4 7.33293C4 6.96474 4.29848 6.66626 4.66667 6.66626C5.03486 6.66626 5.33333 6.96474 5.33333 7.33293ZM1.99967 7.99967C2.36786 7.99967 2.66634 7.7012 2.66634 7.33301C2.66634 6.96482 2.36786 6.66634 1.99967 6.66634C1.63148 6.66634 1.33301 6.96482 1.33301 7.33301C1.33301 7.7012 1.63148 7.99967 1.99967 7.99967Z" fill="url(#paint0_linear_4348_19742)"/>
</g>
</g>
<defs>
<filter id="filter0_d_4348_19742" x="1.33301" y="1.33301" width="9.33325" height="7.66699" filterUnits="userSpaceOnUse" color-interpolation-filters="sRGB">
<feFlood flood-opacity="0" result="BackgroundImageFix"/>
<feColorMatrix in="SourceAlpha" type="matrix" values="0 0 0 0 0 0 0 0 0 0 0 0 0 0 0 0 0 0 127 0" result="hardAlpha"/>
<feOffset dy="1"/>
<feColorMatrix type="matrix" values="0 0 0 0 0 0 0 0 0 0 0 0 0 0 0 0 0 0 0.06 0"/>
<feBlend mode="normal" in2="BackgroundImageFix" result="effect1_dropShadow_4348_19742"/>
<feBlend mode="normal" in="SourceGraphic" in2="effect1_dropShadow_4348_19742" result="shape"/>
</filter>
<linearGradient id="paint0_linear_4348_19742" x1="1.33301" y1="1.33301" x2="1.33301" y2="7.99967" gradientUnits="userSpaceOnUse">
<stop stop-color="white"/>
<stop offset="1" stop-color="#F0F0F0"/>
</linearGradient>
</defs>
</svg>
